<svg width="353" height="50" viewBox="0 0 353 50" fill="none" xmlns="http://www.w3.org/2000/svg">
<mask id="path-1-outside-1_50_3" maskUnits="userSpaceOnUse" x="0" y="0" width="353" height="50" fill="black">
<rect fill="white" width="353" height="50"/>
<path d="M1 48.488V3.688H4.904L25.384 38.632H23.336L43.624 3.688H47.528V48.488H42.984V10.792H44.072L25.384 42.792H23.144L4.328 10.792H5.544V48.488H1Z"/>
<path d="M82.221 48.488V41.064L82.029 39.848V27.432C82.029 24.5733 81.2183 22.376 79.597 20.84C78.0183 19.304 75.6503 18.536 72.493 18.536C70.317 18.536 68.2477 18.8987 66.285 19.624C64.3223 20.3493 62.6583 21.3093 61.293 22.504L59.245 19.112C60.9517 17.6613 62.9997 16.552 65.389 15.784C67.7783 14.9733 70.2957 14.568 72.941 14.568C77.293 14.568 80.6423 15.656 82.989 17.832C85.3783 19.9653 86.573 23.2293 86.573 27.624V48.488H82.221ZM70.637 48.808C68.1197 48.808 65.9223 48.4027 64.045 47.592C62.2103 46.7387 60.8023 45.5867 59.821 44.136C58.8397 42.6427 58.349 40.936 58.349 39.016C58.349 37.2667 58.7543 35.688 59.565 34.28C60.4183 32.8293 61.7837 31.6773 63.661 30.824C65.581 29.928 68.141 29.48 71.341 29.48H82.925V32.872H71.469C68.2263 32.872 65.965 33.448 64.685 34.6C63.4477 35.752 62.829 37.1813 62.829 38.888C62.829 40.808 63.5757 42.344 65.069 43.496C66.5623 44.648 68.653 45.224 71.341 45.224C73.901 45.224 76.0983 44.648 77.933 43.496C79.8103 42.3013 81.1757 40.5947 82.029 38.376L83.053 41.512C82.1997 43.7307 80.7063 45.5013 78.573 46.824C76.4823 48.1467 73.837 48.808 70.637 48.808Z"/>
<path d="M98.915 48.488V14.888H103.267V24.04L102.819 22.44C103.758 19.88 105.336 17.9387 107.555 16.616C109.774 15.2507 112.526 14.568 115.811 14.568V18.984C115.64 18.984 115.47 18.984 115.299 18.984C115.128 18.9413 114.958 18.92 114.787 18.92C111.246 18.92 108.472 20.008 106.467 22.184C104.462 24.3173 103.459 27.368 103.459 31.336V48.488H98.915Z"/>
<path d="M127.687 39.784L127.814 33.96L148.743 14.888H154.311L139.527 29.032L136.967 31.208L127.687 39.784ZM124.103 48.488V1H128.646V48.488H124.103ZM150.15 48.488L136.135 31.016L139.079 27.496L155.719 48.488H150.15Z"/>
<path d="M180.25 48.488V3.688H199.578C204.57 3.688 208.431 4.69067 211.162 6.696C213.935 8.70133 215.322 11.5387 215.322 15.208C215.322 17.64 214.746 19.688 213.594 21.352C212.485 23.016 210.949 24.2747 208.986 25.128C207.066 25.9813 204.954 26.408 202.65 26.408L203.738 24.872C206.597 24.872 209.05 25.32 211.098 26.216C213.189 27.0693 214.81 28.3707 215.962 30.12C217.114 31.8267 217.69 33.96 217.69 36.52C217.69 40.3173 216.282 43.2613 213.466 45.352C210.693 47.4427 206.49 48.488 200.858 48.488H180.25ZM184.986 44.584H200.794C204.719 44.584 207.727 43.9227 209.818 42.6C211.909 41.2347 212.954 39.08 212.954 36.136C212.954 33.2347 211.909 31.1227 209.818 29.8C207.727 28.4347 204.719 27.752 200.794 27.752H184.474V23.848H199.258C202.842 23.848 205.615 23.1653 207.578 21.8C209.583 20.4347 210.586 18.408 210.586 15.72C210.586 12.9893 209.583 10.9627 207.578 9.64C205.615 8.27467 202.842 7.592 199.258 7.592H184.986V44.584Z"/>
<path d="M241.812 48.808C238.313 48.808 235.241 48.0827 232.596 46.632C229.951 45.1387 227.881 43.112 226.388 40.552C224.895 37.9493 224.148 34.984 224.148 31.656C224.148 28.328 224.852 25.384 226.26 22.824C227.711 20.264 229.673 18.2587 232.148 16.808C234.665 15.3147 237.481 14.568 240.596 14.568C243.753 14.568 246.548 15.2933 248.98 16.744C251.455 18.152 253.396 20.1573 254.804 22.76C256.212 25.32 256.916 28.2853 256.916 31.656C256.916 31.8693 256.895 32.104 256.852 32.36C256.852 32.5733 256.852 32.808 256.852 33.064H227.604V29.672H254.42L252.628 31.016C252.628 28.584 252.095 26.4293 251.028 24.552C250.004 22.632 248.596 21.1387 246.804 20.072C245.012 19.0053 242.943 18.472 240.596 18.472C238.292 18.472 236.223 19.0053 234.388 20.072C232.553 21.1387 231.124 22.632 230.1 24.552C229.076 26.472 228.564 28.6693 228.564 31.144V31.848C228.564 34.408 229.119 36.6693 230.228 38.632C231.38 40.552 232.959 42.0667 234.964 43.176C237.012 44.2427 239.337 44.776 241.94 44.776C243.988 44.776 245.887 44.4133 247.636 43.688C249.428 42.9627 250.964 41.8533 252.244 40.36L254.804 43.304C253.311 45.096 251.433 46.4613 249.172 47.4C246.953 48.3387 244.5 48.808 241.812 48.808Z"/>
<path d="M266.165 48.488V1H270.709V48.488H266.165Z"/>
<path d="M297.048 48.808C293.806 48.808 290.883 48.0827 288.28 46.632C285.72 45.1387 283.694 43.112 282.201 40.552C280.707 37.9493 279.961 34.984 279.961 31.656C279.961 28.2853 280.707 25.32 282.201 22.76C283.694 20.2 285.72 18.1947 288.28 16.744C290.84 15.2933 293.763 14.568 297.048 14.568C300.376 14.568 303.32 15.2933 305.88 16.744C308.483 18.1947 310.51 20.2 311.961 22.76C313.454 25.32 314.201 28.2853 314.201 31.656C314.201 34.984 313.454 37.9493 311.961 40.552C310.51 43.112 308.483 45.1387 305.88 46.632C303.278 48.0827 300.334 48.808 297.048 48.808ZM297.048 44.776C299.48 44.776 301.635 44.2427 303.513 43.176C305.39 42.0667 306.862 40.5307 307.928 38.568C309.038 36.5627 309.592 34.2587 309.592 31.656C309.592 29.0107 309.038 26.7067 307.928 24.744C306.862 22.7813 305.39 21.2667 303.513 20.2C301.635 19.0907 299.502 18.536 297.112 18.536C294.723 18.536 292.59 19.0907 290.712 20.2C288.835 21.2667 287.342 22.7813 286.233 24.744C285.123 26.7067 284.569 29.0107 284.569 31.656C284.569 34.2587 285.123 36.5627 286.233 38.568C287.342 40.5307 288.835 42.0667 290.712 43.176C292.59 44.2427 294.702 44.776 297.048 44.776Z"/>
<path d="M331.18 48.488L316.268 14.888H321.004L334.7 46.056H332.46L346.348 14.888H350.828L335.852 48.488H331.18Z"/>
</mask>
<path d="M1 48.488V3.688H4.904L25.384 38.632H23.336L43.624 3.688H47.528V48.488H42.984V10.792H44.072L25.384 42.792H23.144L4.328 10.792H5.544V48.488H1Z" fill="white"/>
<path d="M82.221 48.488V41.064L82.029 39.848V27.432C82.029 24.5733 81.2183 22.376 79.597 20.84C78.0183 19.304 75.6503 18.536 72.493 18.536C70.317 18.536 68.2477 18.8987 66.285 19.624C64.3223 20.3493 62.6583 21.3093 61.293 22.504L59.245 19.112C60.9517 17.6613 62.9997 16.552 65.389 15.784C67.7783 14.9733 70.2957 14.568 72.941 14.568C77.293 14.568 80.6423 15.656 82.989 17.832C85.3783 19.9653 86.573 23.2293 86.573 27.624V48.488H82.221ZM70.637 48.808C68.1197 48.808 65.9223 48.4027 64.045 47.592C62.2103 46.7387 60.8023 45.5867 59.821 44.136C58.8397 42.6427 58.349 40.936 58.349 39.016C58.349 37.2667 58.7543 35.688 59.565 34.28C60.4183 32.8293 61.7837 31.6773 63.661 30.824C65.581 29.928 68.141 29.48 71.341 29.48H82.925V32.872H71.469C68.2263 32.872 65.965 33.448 64.685 34.6C63.4477 35.752 62.829 37.1813 62.829 38.888C62.829 40.808 63.5757 42.344 65.069 43.496C66.5623 44.648 68.653 45.224 71.341 45.224C73.901 45.224 76.0983 44.648 77.933 43.496C79.8103 42.3013 81.1757 40.5947 82.029 38.376L83.053 41.512C82.1997 43.7307 80.7063 45.5013 78.573 46.824C76.4823 48.1467 73.837 48.808 70.637 48.808Z" fill="white"/>
<path d="M98.915 48.488V14.888H103.267V24.04L102.819 22.44C103.758 19.88 105.336 17.9387 107.555 16.616C109.774 15.2507 112.526 14.568 115.811 14.568V18.984C115.64 18.984 115.47 18.984 115.299 18.984C115.128 18.9413 114.958 18.92 114.787 18.92C111.246 18.92 108.472 20.008 106.467 22.184C104.462 24.3173 103.459 27.368 103.459 31.336V48.488H98.915Z" fill="white"/>
<path d="M127.687 39.784L127.814 33.96L148.743 14.888H154.311L139.527 29.032L136.967 31.208L127.687 39.784ZM124.103 48.488V1H128.646V48.488H124.103ZM150.15 48.488L136.135 31.016L139.079 27.496L155.719 48.488H150.15Z" fill="white"/>
<path d="M180.25 48.488V3.688H199.578C204.57 3.688 208.431 4.69067 211.162 6.696C213.935 8.70133 215.322 11.5387 215.322 15.208C215.322 17.64 214.746 19.688 213.594 21.352C212.485 23.016 210.949 24.2747 208.986 25.128C207.066 25.9813 204.954 26.408 202.65 26.408L203.738 24.872C206.597 24.872 209.05 25.32 211.098 26.216C213.189 27.0693 214.81 28.3707 215.962 30.12C217.114 31.8267 217.69 33.96 217.69 36.52C217.69 40.3173 216.282 43.2613 213.466 45.352C210.693 47.4427 206.49 48.488 200.858 48.488H180.25ZM184.986 44.584H200.794C204.719 44.584 207.727 43.9227 209.818 42.6C211.909 41.2347 212.954 39.08 212.954 36.136C212.954 33.2347 211.909 31.1227 209.818 29.8C207.727 28.4347 204.719 27.752 200.794 27.752H184.474V23.848H199.258C202.842 23.848 205.615 23.1653 207.578 21.8C209.583 20.4347 210.586 18.408 210.586 15.72C210.586 12.9893 209.583 10.9627 207.578 9.64C205.615 8.27467 202.842 7.592 199.258 7.592H184.986V44.584Z" fill="white"/>
<path d="M241.812 48.808C238.313 48.808 235.241 48.0827 232.596 46.632C229.951 45.1387 227.881 43.112 226.388 40.552C224.895 37.9493 224.148 34.984 224.148 31.656C224.148 28.328 224.852 25.384 226.26 22.824C227.711 20.264 229.673 18.2587 232.148 16.808C234.665 15.3147 237.481 14.568 240.596 14.568C243.753 14.568 246.548 15.2933 248.98 16.744C251.455 18.152 253.396 20.1573 254.804 22.76C256.212 25.32 256.916 28.2853 256.916 31.656C256.916 31.8693 256.895 32.104 256.852 32.36C256.852 32.5733 256.852 32.808 256.852 33.064H227.604V29.672H254.42L252.628 31.016C252.628 28.584 252.095 26.4293 251.028 24.552C250.004 22.632 248.596 21.1387 246.804 20.072C245.012 19.0053 242.943 18.472 240.596 18.472C238.292 18.472 236.223 19.0053 234.388 20.072C232.553 21.1387 231.124 22.632 230.1 24.552C229.076 26.472 228.564 28.6693 228.564 31.144V31.848C228.564 34.408 229.119 36.6693 230.228 38.632C231.38 40.552 232.959 42.0667 234.964 43.176C237.012 44.2427 239.337 44.776 241.94 44.776C243.988 44.776 245.887 44.4133 247.636 43.688C249.428 42.9627 250.964 41.8533 252.244 40.36L254.804 43.304C253.311 45.096 251.433 46.4613 249.172 47.4C246.953 48.3387 244.5 48.808 241.812 48.808Z" fill="white"/>
<path d="M266.165 48.488V1H270.709V48.488H266.165Z" fill="white"/>
<path d="M297.048 48.808C293.806 48.808 290.883 48.0827 288.28 46.632C285.72 45.1387 283.694 43.112 282.201 40.552C280.707 37.9493 279.961 34.984 279.961 31.656C279.961 28.2853 280.707 25.32 282.201 22.76C283.694 20.2 285.72 18.1947 288.28 16.744C290.84 15.2933 293.763 14.568 297.048 14.568C300.376 14.568 303.32 15.2933 305.88 16.744C308.483 18.1947 310.51 20.2 311.961 22.76C313.454 25.32 314.201 28.2853 314.201 31.656C314.201 34.984 313.454 37.9493 311.961 40.552C310.51 43.112 308.483 45.1387 305.88 46.632C303.278 48.0827 300.334 48.808 297.048 48.808ZM297.048 44.776C299.48 44.776 301.635 44.2427 303.513 43.176C305.39 42.0667 306.862 40.5307 307.928 38.568C309.038 36.5627 309.592 34.2587 309.592 31.656C309.592 29.0107 309.038 26.7067 307.928 24.744C306.862 22.7813 305.39 21.2667 303.513 20.2C301.635 19.0907 299.502 18.536 297.112 18.536C294.723 18.536 292.59 19.0907 290.712 20.2C288.835 21.2667 287.342 22.7813 286.233 24.744C285.123 26.7067 284.569 29.0107 284.569 31.656C284.569 34.2587 285.123 36.5627 286.233 38.568C287.342 40.5307 288.835 42.0667 290.712 43.176C292.59 44.2427 294.702 44.776 297.048 44.776Z" fill="white"/>
<path d="M331.18 48.488L316.268 14.888H321.004L334.7 46.056H332.46L346.348 14.888H350.828L335.852 48.488H331.18Z" fill="white"/>
<path d="M1 48.488V3.688H4.904L25.384 38.632H23.336L43.624 3.688H47.528V48.488H42.984V10.792H44.072L25.384 42.792H23.144L4.328 10.792H5.544V48.488H1Z" stroke="white" stroke-width="2" mask="url(#path-1-outside-1_50_3)"/>
<path d="M82.221 48.488V41.064L82.029 39.848V27.432C82.029 24.5733 81.2183 22.376 79.597 20.84C78.0183 19.304 75.6503 18.536 72.493 18.536C70.317 18.536 68.2477 18.8987 66.285 19.624C64.3223 20.3493 62.6583 21.3093 61.293 22.504L59.245 19.112C60.9517 17.6613 62.9997 16.552 65.389 15.784C67.7783 14.9733 70.2957 14.568 72.941 14.568C77.293 14.568 80.6423 15.656 82.989 17.832C85.3783 19.9653 86.573 23.2293 86.573 27.624V48.488H82.221ZM70.637 48.808C68.1197 48.808 65.9223 48.4027 64.045 47.592C62.2103 46.7387 60.8023 45.5867 59.821 44.136C58.8397 42.6427 58.349 40.936 58.349 39.016C58.349 37.2667 58.7543 35.688 59.565 34.28C60.4183 32.8293 61.7837 31.6773 63.661 30.824C65.581 29.928 68.141 29.48 71.341 29.48H82.925V32.872H71.469C68.2263 32.872 65.965 33.448 64.685 34.6C63.4477 35.752 62.829 37.1813 62.829 38.888C62.829 40.808 63.5757 42.344 65.069 43.496C66.5623 44.648 68.653 45.224 71.341 45.224C73.901 45.224 76.0983 44.648 77.933 43.496C79.8103 42.3013 81.1757 40.5947 82.029 38.376L83.053 41.512C82.1997 43.7307 80.7063 45.5013 78.573 46.824C76.4823 48.1467 73.837 48.808 70.637 48.808Z" stroke="white" stroke-width="2" mask="url(#path-1-outside-1_50_3)"/>
<path d="M98.915 48.488V14.888H103.267V24.04L102.819 22.44C103.758 19.88 105.336 17.9387 107.555 16.616C109.774 15.2507 112.526 14.568 115.811 14.568V18.984C115.64 18.984 115.47 18.984 115.299 18.984C115.128 18.9413 114.958 18.92 114.787 18.92C111.246 18.92 108.472 20.008 106.467 22.184C104.462 24.3173 103.459 27.368 103.459 31.336V48.488H98.915Z" stroke="white" stroke-width="2" mask="url(#path-1-outside-1_50_3)"/>
<path d="M127.687 39.784L127.814 33.96L148.743 14.888H154.311L139.527 29.032L136.967 31.208L127.687 39.784ZM124.103 48.488V1H128.646V48.488H124.103ZM150.15 48.488L136.135 31.016L139.079 27.496L155.719 48.488H150.15Z" stroke="white" stroke-width="2" mask="url(#path-1-outside-1_50_3)"/>
<path d="M180.25 48.488V3.688H199.578C204.57 3.688 208.431 4.69067 211.162 6.696C213.935 8.70133 215.322 11.5387 215.322 15.208C215.322 17.64 214.746 19.688 213.594 21.352C212.485 23.016 210.949 24.2747 208.986 25.128C207.066 25.9813 204.954 26.408 202.65 26.408L203.738 24.872C206.597 24.872 209.05 25.32 211.098 26.216C213.189 27.0693 214.81 28.3707 215.962 30.12C217.114 31.8267 217.69 33.96 217.69 36.52C217.69 40.3173 216.282 43.2613 213.466 45.352C210.693 47.4427 206.49 48.488 200.858 48.488H180.25ZM184.986 44.584H200.794C204.719 44.584 207.727 43.9227 209.818 42.6C211.909 41.2347 212.954 39.08 212.954 36.136C212.954 33.2347 211.909 31.1227 209.818 29.8C207.727 28.4347 204.719 27.752 200.794 27.752H184.474V23.848H199.258C202.842 23.848 205.615 23.1653 207.578 21.8C209.583 20.4347 210.586 18.408 210.586 15.72C210.586 12.9893 209.583 10.9627 207.578 9.64C205.615 8.27467 202.842 7.592 199.258 7.592H184.986V44.584Z" stroke="white" stroke-width="2" mask="url(#path-1-outside-1_50_3)"/>
<path d="M241.812 48.808C238.313 48.808 235.241 48.0827 232.596 46.632C229.951 45.1387 227.881 43.112 226.388 40.552C224.895 37.9493 224.148 34.984 224.148 31.656C224.148 28.328 224.852 25.384 226.26 22.824C227.711 20.264 229.673 18.2587 232.148 16.808C234.665 15.3147 237.481 14.568 240.596 14.568C243.753 14.568 246.548 15.2933 248.98 16.744C251.455 18.152 253.396 20.1573 254.804 22.76C256.212 25.32 256.916 28.2853 256.916 31.656C256.916 31.8693 256.895 32.104 256.852 32.36C256.852 32.5733 256.852 32.808 256.852 33.064H227.604V29.672H254.42L252.628 31.016C252.628 28.584 252.095 26.4293 251.028 24.552C250.004 22.632 248.596 21.1387 246.804 20.072C245.012 19.0053 242.943 18.472 240.596 18.472C238.292 18.472 236.223 19.0053 234.388 20.072C232.553 21.1387 231.124 22.632 230.1 24.552C229.076 26.472 228.564 28.6693 228.564 31.144V31.848C228.564 34.408 229.119 36.6693 230.228 38.632C231.38 40.552 232.959 42.0667 234.964 43.176C237.012 44.2427 239.337 44.776 241.94 44.776C243.988 44.776 245.887 44.4133 247.636 43.688C249.428 42.9627 250.964 41.8533 252.244 40.36L254.804 43.304C253.311 45.096 251.433 46.4613 249.172 47.4C246.953 48.3387 244.5 48.808 241.812 48.808Z" stroke="white" stroke-width="2" mask="url(#path-1-outside-1_50_3)"/>
<path d="M266.165 48.488V1H270.709V48.488H266.165Z" stroke="white" stroke-width="2" mask="url(#path-1-outside-1_50_3)"/>
<path d="M297.048 48.808C293.806 48.808 290.883 48.0827 288.28 46.632C285.72 45.1387 283.694 43.112 282.201 40.552C280.707 37.9493 279.961 34.984 279.961 31.656C279.961 28.2853 280.707 25.32 282.201 22.76C283.694 20.2 285.72 18.1947 288.28 16.744C290.84 15.2933 293.763 14.568 297.048 14.568C300.376 14.568 303.32 15.2933 305.88 16.744C308.483 18.1947 310.51 20.2 311.961 22.76C313.454 25.32 314.201 28.2853 314.201 31.656C314.201 34.984 313.454 37.9493 311.961 40.552C310.51 43.112 308.483 45.1387 305.88 46.632C303.278 48.0827 300.334 48.808 297.048 48.808ZM297.048 44.776C299.48 44.776 301.635 44.2427 303.513 43.176C305.39 42.0667 306.862 40.5307 307.928 38.568C309.038 36.5627 309.592 34.2587 309.592 31.656C309.592 29.0107 309.038 26.7067 307.928 24.744C306.862 22.7813 305.39 21.2667 303.513 20.2C301.635 19.0907 299.502 18.536 297.112 18.536C294.723 18.536 292.59 19.0907 290.712 20.2C288.835 21.2667 287.342 22.7813 286.233 24.744C285.123 26.7067 284.569 29.0107 284.569 31.656C284.569 34.2587 285.123 36.5627 286.233 38.568C287.342 40.5307 288.835 42.0667 290.712 43.176C292.59 44.2427 294.702 44.776 297.048 44.776Z" stroke="white" stroke-width="2" mask="url(#path-1-outside-1_50_3)"/>
<path d="M331.18 48.488L316.268 14.888H321.004L334.7 46.056H332.46L346.348 14.888H350.828L335.852 48.488H331.18Z" stroke="white" stroke-width="2" mask="url(#path-1-outside-1_50_3)"/>
</svg>
